<?xml version="1.0" encoding="utf-8"?>
<!-- Generator: Adobe Illustrator 16.0.4, SVG Export Plug-In . SVG Version: 6.00 Build 0)  -->
<!DOCTYPE svg PUBLIC "-//W3C//DTD SVG 1.1//EN" "http://www.w3.org/Graphics/SVG/1.1/DTD/svg11.dtd">
<svg version="1.1" id="Layer_1" xmlns="http://www.w3.org/2000/svg" xmlns:xlink="http://www.w3.org/1999/xlink" x="0px" y="0px"
	 width="34.5px" height="6px" viewBox="0 0 34.5 6" enable-background="new 0 0 34.5 6" xml:space="preserve">
<g>
	<path fill="#FFFFFF" d="M34.33,3.289c-0.057,0.156-0.145,0.29-0.293,0.37c-0.175,0.093-0.356,0.13-0.541,0.017
		c-0.109-0.067-0.165-0.17-0.191-0.292c-0.008-0.04-0.014-0.08-0.022-0.134c-0.093,0.02-0.177,0.047-0.255,0.097
		c-0.231,0.148-0.379,0.368-0.508,0.603c-0.205,0.376-0.35,0.777-0.495,1.179c-0.078,0.214-0.158,0.427-0.239,0.64
		c-0.008,0.023-0.021,0.045-0.036,0.074c-0.337,0-0.671,0-1.024,0c0.049-0.125,0.092-0.236,0.135-0.347
		c-0.008-0.006-0.017-0.012-0.025-0.017c-0.025,0.014-0.052,0.026-0.076,0.044c-0.24,0.179-0.505,0.305-0.803,0.338
		c-0.424,0.048-0.824-0.013-1.152-0.313c-0.121-0.111-0.209-0.252-0.268-0.408c-0.02-0.054-0.037-0.107-0.061-0.177
		c-0.057,0.071-0.104,0.129-0.148,0.188c-0.146,0.195-0.32,0.366-0.518,0.51c-0.243,0.178-0.516,0.255-0.814,0.195
		c-0.271-0.055-0.441-0.23-0.539-0.484c-0.01-0.026-0.02-0.053-0.031-0.079c-0.002-0.005-0.01-0.007-0.005-0.004
		c-0.071,0.065-0.142,0.128-0.21,0.192c-0.207,0.195-0.447,0.333-0.729,0.379c-0.282,0.047-0.556,0.005-0.771-0.198
		c-0.104-0.098-0.174-0.23-0.258-0.348c-0.014-0.021-0.021-0.045-0.037-0.081c-0.031,0.027-0.056,0.05-0.079,0.071
		c-0.139,0.125-0.27,0.26-0.416,0.373c-0.242,0.186-0.523,0.24-0.817,0.173c-0.271-0.062-0.438-0.25-0.523-0.512
		c-0.011-0.031-0.02-0.064-0.035-0.117c-0.051,0.06-0.089,0.104-0.126,0.148c-0.179,0.216-0.388,0.393-0.665,0.463
		c-0.371,0.094-0.713,0.049-0.982-0.25c-0.125-0.139-0.207-0.302-0.25-0.484c-0.009-0.039-0.021-0.077-0.03-0.117
		c-0.12,0.131-0.229,0.261-0.35,0.379c-0.279,0.273-0.61,0.456-0.999,0.502c-0.348,0.042-0.689,0.003-0.993-0.197
		c-0.212-0.139-0.352-0.332-0.438-0.567c-0.019-0.053-0.035-0.106-0.059-0.177c-0.038,0.047-0.065,0.079-0.09,0.114
		c-0.172,0.245-0.372,0.464-0.617,0.637c-0.243,0.171-0.513,0.247-0.808,0.181c-0.312-0.071-0.525-0.337-0.56-0.654
		c-0.035-0.321,0.059-0.615,0.176-0.901c0.208-0.509,0.432-1.011,0.65-1.516c0.228-0.525,0.458-1.048,0.683-1.574
		C17.2,0.939,17.31,0.669,17.41,0.397c0.032-0.086,0.033-0.185,0.049-0.278c0.31,0,0.619,0,0.93,0
		c0.036,0.095,0.022,0.187-0.016,0.276c-0.19,0.451-0.383,0.902-0.572,1.354c-0.326,0.778-0.652,1.556-0.975,2.336
		c-0.08,0.192-0.143,0.392-0.127,0.607c0.014,0.201,0.162,0.321,0.355,0.268c0.074-0.02,0.146-0.061,0.208-0.104
		c0.059-0.042,0.11-0.097,0.155-0.153c0.103-0.135,0.207-0.267,0.245-0.441c0.152-0.69,0.538-1.207,1.181-1.512
		c0.357-0.17,0.731-0.182,1.105-0.045c0.165,0.061,0.291,0.169,0.354,0.336c0.136,0.361,0.039,0.751-0.241,1.007
		c-0.217,0.198-0.478,0.321-0.77,0.361c-0.168,0.023-0.34,0.025-0.51,0.037c-0.039,0.003-0.078,0.008-0.133,0.014
		c0.02,0.117,0.031,0.224,0.057,0.326c0.085,0.337,0.408,0.539,0.753,0.489c0.274-0.04,0.505-0.152,0.69-0.359
		c0.168-0.189,0.313-0.396,0.382-0.638c0.128-0.451,0.354-0.835,0.711-1.14c0.384-0.33,0.831-0.504,1.339-0.492
		c0.259,0.005,0.498,0.082,0.67,0.297c0.009,0.012,0.023,0.018,0.043,0.031c0.017-0.088,0.029-0.163,0.045-0.246
		c0.312,0,0.615,0,0.913,0c0.06,0.082,0.031,0.156,0.003,0.227c-0.057,0.143-0.125,0.283-0.182,0.427
		c-0.122,0.312-0.246,0.624-0.354,0.94c-0.039,0.113-0.05,0.241-0.052,0.362c-0.002,0.164,0.1,0.277,0.244,0.289
		c0.16,0.013,0.285-0.068,0.393-0.178c0.018-0.019,0.02-0.052,0.023-0.079c0.018-0.122,0.023-0.246,0.049-0.366
		c0.105-0.492,0.352-0.903,0.735-1.229c0.396-0.336,0.851-0.503,1.37-0.477c0.196,0.01,0.381,0.066,0.533,0.197
		c0.045,0.038,0.082,0.085,0.131,0.138c0.076-0.174,0.147-0.334,0.217-0.495c0.151-0.349,0.301-0.697,0.451-1.045
		c0.126-0.29,0.26-0.577,0.373-0.872c0.055-0.142,0.073-0.298,0.107-0.449c0.311,0,0.62,0,0.93,0
		c0.045,0.106,0.01,0.206-0.029,0.303c-0.076,0.188-0.154,0.374-0.231,0.561c-0.401,0.956-0.804,1.91-1.204,2.867
		c-0.098,0.232-0.203,0.465-0.229,0.72c-0.008,0.076,0,0.16,0.025,0.231c0.062,0.176,0.266,0.236,0.444,0.12
		c0.229-0.149,0.406-0.347,0.464-0.63c0.124-0.604,0.436-1.084,0.958-1.42c0.41-0.264,0.85-0.332,1.312-0.173
		c0.103,0.036,0.2,0.108,0.279,0.187c0.204,0.203,0.188,0.702,0.036,0.939c-0.152,0.238-0.367,0.396-0.627,0.498
		c-0.255,0.099-0.52,0.133-0.791,0.125c-0.049-0.002-0.098,0.004-0.146,0.006c-0.034,0.116-0.002,0.214,0.022,0.311
		c0.078,0.32,0.332,0.522,0.662,0.516c0.426-0.009,0.738-0.224,0.953-0.578c0.24-0.397,0.452-0.811,0.63-1.241
		c0.077-0.187,0.141-0.379,0.206-0.569c0.018-0.056,0.021-0.116,0.032-0.182c0.309,0,0.61,0,0.911,0
		c0.012,0.027,0.03,0.05,0.027,0.067c-0.025,0.126-0.055,0.25-0.083,0.374c0.002,0.001,0.006,0.002,0.008,0.001
		c0.013-0.01,0.024-0.021,0.036-0.03c0.251-0.211,0.521-0.376,0.858-0.408c0.339-0.031,0.475,0.088,0.579,0.291
		C34.33,3.099,34.33,3.193,34.33,3.289z M23.066,3.426c-0.012-0.062-0.013-0.127-0.035-0.184c-0.069-0.172-0.268-0.265-0.471-0.232
		c-0.191,0.031-0.35,0.123-0.49,0.25c-0.183,0.164-0.307,0.369-0.402,0.591c-0.109,0.254-0.162,0.518-0.108,0.794
		c0.035,0.176,0.114,0.321,0.298,0.383c0.188,0.063,0.352,0.018,0.482-0.124c0.099-0.106,0.2-0.216,0.266-0.343
		c0.138-0.266,0.253-0.543,0.379-0.814C23.031,3.645,23.068,3.541,23.066,3.426z M26.909,3.408c0.019-0.217-0.122-0.352-0.304-0.389
		c-0.204-0.043-0.39,0.015-0.554,0.135c-0.328,0.241-0.521,0.574-0.617,0.962c-0.056,0.22-0.065,0.444,0.021,0.661
		c0.104,0.26,0.446,0.361,0.665,0.192c0.171-0.132,0.294-0.306,0.384-0.499c0.104-0.228,0.197-0.459,0.29-0.69
		C26.843,3.658,26.925,3.546,26.909,3.408z M29.496,4.188c0.04,0.005,0.07,0.012,0.101,0.011c0.215-0.014,0.427-0.042,0.624-0.136
		c0.346-0.166,0.523-0.446,0.502-0.816c-0.012-0.192-0.107-0.288-0.293-0.281c-0.121,0.004-0.221,0.051-0.314,0.117
		c-0.356,0.251-0.546,0.604-0.619,1.025C29.492,4.131,29.496,4.156,29.496,4.188z M18.68,4.175c0.018,0.011,0.022,0.017,0.028,0.018
		c0.015,0.003,0.031,0.006,0.046,0.006c0.271-0.01,0.533-0.054,0.77-0.198c0.242-0.148,0.38-0.362,0.396-0.642
		c0.017-0.265-0.081-0.423-0.348-0.39c-0.046,0.006-0.091,0.025-0.135,0.043c-0.162,0.062-0.273,0.189-0.389,0.31
		C18.821,3.56,18.725,3.854,18.68,4.175z"/>
	<path fill="#FFFFFF" d="M14.593,3.156c0.204-0.173,0.417-0.329,0.68-0.401c0.15-0.042,0.301-0.064,0.458-0.035
		c0.242,0.046,0.382,0.252,0.349,0.501c-0.032,0.242-0.25,0.487-0.551,0.521c-0.242,0.027-0.462-0.146-0.481-0.389
		c-0.002-0.029-0.007-0.061-0.011-0.096c-0.134,0.002-0.23,0.066-0.326,0.133c-0.171,0.117-0.284,0.286-0.388,0.461
		c-0.188,0.315-0.325,0.656-0.451,1.001c-0.114,0.314-0.234,0.628-0.352,0.941c-0.006,0.015-0.015,0.027-0.026,0.048
		c-0.334,0-0.67,0-1.028,0c0.077-0.182,0.149-0.35,0.221-0.52c-0.005-0.006-0.011-0.012-0.016-0.018
		c-0.026,0.017-0.055,0.029-0.077,0.05c-0.197,0.181-0.412,0.337-0.667,0.423c-0.449,0.15-0.892,0.146-1.31-0.096
		c-0.236-0.137-0.384-0.354-0.475-0.608c-0.014-0.038-0.026-0.077-0.044-0.13c-0.023,0.023-0.042,0.037-0.055,0.056
		C9.854,5.27,9.62,5.491,9.334,5.656C9.1,5.79,8.849,5.867,8.576,5.871C8.392,5.873,8.211,5.865,8.033,5.807
		C7.689,5.694,7.454,5.47,7.313,5.141c-0.01-0.022-0.021-0.045-0.036-0.077C7.207,5.147,7.145,5.226,7.078,5.3
		C6.869,5.531,6.645,5.748,6.333,5.833C6.095,5.898,5.851,5.912,5.628,5.77C5.409,5.631,5.289,5.426,5.275,5.165
		C5.258,4.844,5.355,4.547,5.482,4.259c0.057-0.128,0.121-0.251,0.169-0.382c0.036-0.1,0.063-0.206,0.074-0.312
		C5.75,3.331,5.54,3.175,5.303,3.246c-0.12,0.036-0.224,0.102-0.314,0.188C4.67,3.736,4.445,4.1,4.297,4.509
		C4.16,4.89,4.033,5.273,3.9,5.656C3.879,5.719,3.853,5.778,3.827,5.844c-0.351,0-0.693,0-1.058,0
		c0.117-0.287,0.229-0.562,0.342-0.836c-0.01-0.006-0.02-0.012-0.029-0.018c-0.021,0.023-0.043,0.046-0.062,0.07
		C2.805,5.346,2.541,5.572,2.215,5.719c-0.446,0.2-0.901,0.219-1.353,0.026C0.631,5.646,0.454,5.477,0.332,5.25
		C0.256,5.108,0.213,4.958,0.17,4.807c0-0.164,0-0.329,0-0.493C0.176,4.299,0.184,4.284,0.187,4.27
		c0.065-0.445,0.278-0.82,0.577-1.143C1.048,2.822,1.394,2.6,1.799,2.484c0.355-0.102,0.694-0.073,1.002,0.154
		c0.217,0.16,0.32,0.37,0.271,0.641c-0.03,0.169-0.113,0.299-0.287,0.356C2.6,3.698,2.43,3.676,2.275,3.556
		c-0.026-0.02-0.038-0.059-0.058-0.092c0.025-0.016,0.039-0.024,0.053-0.031c0.101-0.057,0.154-0.165,0.136-0.278
		c-0.014-0.086-0.08-0.146-0.168-0.15C2.097,2.997,1.971,3.047,1.853,3.117c-0.332,0.195-0.529,0.492-0.62,0.86
		c-0.084,0.345-0.065,0.675,0.144,0.98c0.158,0.231,0.381,0.315,0.646,0.299c0.219-0.014,0.423-0.091,0.592-0.232
		C2.739,4.92,2.853,4.8,2.962,4.679c0.272-0.302,0.517-0.627,0.687-0.995C3.864,3.219,4.05,2.741,4.251,2.271
		c0.205-0.479,0.414-0.958,0.618-1.438c0.098-0.229,0.192-0.461,0.216-0.714c0.311,0,0.62,0,0.93,0
		c0.033,0.086,0.014,0.168-0.02,0.249C5.786,0.87,5.576,1.371,5.366,1.873C5.195,2.281,5.022,2.688,4.852,3.096
		c-0.01,0.025-0.013,0.053-0.019,0.078C4.839,3.178,4.845,3.183,4.85,3.187c0.02-0.012,0.042-0.021,0.058-0.035
		c0.331-0.302,0.72-0.477,1.164-0.524c0.134-0.015,0.267,0.001,0.393,0.046c0.153,0.054,0.253,0.164,0.301,0.318
		c0.059,0.19,0.05,0.383-0.018,0.567C6.67,3.775,6.575,3.986,6.49,4.201C6.43,4.352,6.379,4.506,6.397,4.67
		c0.009,0.072,0.03,0.15,0.068,0.212C6.556,5.027,6.772,4.99,6.886,4.92c0.123-0.076,0.226-0.177,0.295-0.303
		c0.031-0.058,0.039-0.133,0.046-0.2c0.045-0.408,0.21-0.765,0.462-1.084c0.22-0.279,0.491-0.492,0.824-0.618
		c0.344-0.131,0.69-0.14,1.036-0.005c0.226,0.089,0.358,0.258,0.39,0.496c0.045,0.342-0.051,0.64-0.318,0.868
		C9.38,4.28,9.097,4.392,8.785,4.426C8.647,4.441,8.508,4.44,8.369,4.446C8.338,4.448,8.307,4.451,8.272,4.453
		C8.23,4.584,8.267,4.704,8.303,4.818c0.11,0.342,0.42,0.5,0.76,0.454c0.435-0.058,0.713-0.325,0.916-0.69
		c0.062-0.111,0.104-0.227,0.131-0.353c0.077-0.362,0.248-0.681,0.488-0.963c0.251-0.294,0.557-0.503,0.931-0.604
		c0.298-0.08,0.595-0.063,0.882,0.051c0.226,0.09,0.345,0.262,0.38,0.502c0.039,0.262-0.014,0.5-0.175,0.706
		c-0.138,0.177-0.318,0.306-0.529,0.39c-0.229,0.092-0.467,0.134-0.712,0.136c-0.085,0.001-0.169,0-0.255,0
		c-0.037,0.099-0.006,0.183,0.011,0.263c0.089,0.442,0.43,0.646,0.898,0.543c0.259-0.057,0.461-0.201,0.624-0.404
		c0.215-0.268,0.392-0.559,0.541-0.867c0.109-0.225,0.231-0.441,0.349-0.663c0.088-0.166,0.155-0.339,0.183-0.526
		c0.004-0.023,0.015-0.047,0.024-0.08c0.299,0,0.596,0,0.889,0c0.053,0.047,0.051,0.099,0.036,0.152
		C14.647,2.961,14.62,3.059,14.593,3.156L14.593,3.156z M8.256,4.198c0.28-0.004,0.527-0.024,0.755-0.141
		c0.326-0.167,0.51-0.423,0.496-0.802C9.5,3.07,9.39,2.967,9.208,2.965c-0.104,0-0.191,0.039-0.274,0.093
		c-0.291,0.19-0.488,0.454-0.593,0.784C8.306,3.952,8.287,4.066,8.256,4.198z M11.127,4.188c0.038,0.004,0.068,0.011,0.099,0.01
		c0.183-0.013,0.366-0.029,0.539-0.098c0.348-0.137,0.633-0.423,0.59-0.87c-0.014-0.147-0.086-0.249-0.214-0.26
		c-0.064-0.006-0.133,0.001-0.196,0.017c-0.142,0.035-0.253,0.128-0.357,0.225c-0.261,0.246-0.4,0.556-0.46,0.904
		C11.125,4.137,11.127,4.158,11.127,4.188z"/>
	<path fill="#FFFFFF" d="M14.593,3.156L14.593,3.156L14.593,3.156z"/>
</g>
</svg>
